<svg xmlns="http://www.w3.org/2000/svg" width="432" height="242" fill="none"><g clip-path="url(#a)"><rect width="432" height="242" fill="#202124" rx="40"/><path fill="#202124" stroke="#EEE" stroke-width="1.5" d="M-12.109-16h47.778v47.778h-47.778z"/><path fill="#202124" stroke="#EEE" stroke-width="1.5" d="M35.668-16h47.778v47.778H35.668z"/><path fill="#202124" stroke="#EEE" stroke-width="1.5" d="M83.445-16h47.778v47.778H83.445zM179-16h47.778v47.778H179zM322.332-16h47.778v47.778h-47.778z"/><path fill="#202124" stroke="#EEE" stroke-width="1.5" d="M131.223 31.777h47.778v47.778h-47.778z"/><path fill="#202124" stroke="#EEE" stroke-width="1.5" d="M179 31.777h47.778v47.778H179z"/><path fill="#202124" stroke="#EEE" stroke-width="1.5" d="M226.777 31.777h47.778v47.778h-47.778zM274.555 31.777h47.778v47.778h-47.778zM370.109 31.777h47.778v47.778h-47.778zM-12.109 79.555h47.778v47.778h-47.778z"/><path fill="#202124" stroke="#EEE" stroke-width="1.5" d="M35.668 79.555h47.778v47.778H35.668z"/><path fill="#202124" stroke="#EEE" stroke-width="1.5" d="M83.445 79.555h47.778v47.778H83.445zM131.223 79.555h47.778v47.778h-47.778z"/><path fill="#202124" stroke="#EEE" stroke-width="1.5" d="M179 79.555h47.778v47.778H179z"/><path fill="#202124" stroke="#EEE" stroke-width="1.5" d="M226.777 79.555h47.778v47.778h-47.778zM274.555 79.555h47.778v47.778h-47.778zM370.109 79.555h47.778v47.778h-47.778zM417.891 79.555h47.778v47.778h-47.778zM-12.109 127.334h47.778v47.778h-47.778zM131.223 127.334h47.778v47.778h-47.778z"/><path fill="#202124" stroke="#EEE" stroke-width="1.5" d="M179 127.334h47.778v47.778H179z"/><path fill="#202124" stroke="#EEE" stroke-width="1.5" d="M226.777 127.334h47.778v47.778h-47.778zM274.555 127.334h47.778v47.778h-47.778z"/><path fill="#202124" stroke="#EEE" stroke-width="1.5" d="M322.332 127.334h47.778v47.778h-47.778zM83.445 175.111h47.778v47.778H83.445zM131.223 175.111h47.778v47.778h-47.778z"/><path fill="#202124" stroke="#EEE" stroke-width="1.5" d="M179 175.111h47.778v47.778H179z"/><path fill="#202124" stroke="#EEE" stroke-width="1.5" d="M226.777 175.111h47.778v47.778h-47.778zM274.555 175.111h47.778v47.778h-47.778z"/><path fill="#202124" stroke="#EEE" stroke-width="1.5" d="M322.332 175.111h47.778v47.778h-47.778z"/><path fill="#202124" stroke="#EEE" stroke-width="1.5" d="M370.109 175.111h47.778v47.778h-47.778zM417.891 175.111h47.778v47.778h-47.778zM-12.109 222.889h47.778v47.778h-47.778z"/><path fill="#202124" stroke="#EEE" stroke-width="1.5" d="M35.668 222.889h47.778v47.778H35.668z"/><path fill="#202124" stroke="#EEE" stroke-width="1.5" d="M83.445 222.889h47.778v47.778H83.445zM131.223 222.889h47.778v47.778h-47.778z"/><path fill="#202124" stroke="#EEE" stroke-width="1.5" d="M179 222.889h47.778v47.778H179zM417.891 222.889h47.778v47.778h-47.778z"/><path fill="url(#b)" stroke="#EEE" stroke-linejoin="round" stroke-width="1.5" d="M147.894 197.589H284.13l21.177 4.961H126.718l21.176-4.961Z"/><path fill="url(#c)" stroke="#EEE" stroke-linejoin="round" stroke-width="1.5" d="M284.13 67.19H147.894l-21.176 4.961v7.087h178.589v-7.087l-21.177-4.96Z"/><path fill="#202124" fill-rule="evenodd" d="M228.78 68.233c0 .599-5.558 1.084-12.415 1.084-6.857 0-12.415-.485-12.415-1.084v-.002a8.129 8.129 0 0 1 8.129-8.127h8.572c4.49 0 8.129 3.64 8.129 8.129Z" clip-rule="evenodd"/><path fill="#EEE" d="M228.78 68.233v-.75a.75.75 0 0 0-.75.75h.75Zm-24.83-.002.75.018v-.018h-.75Zm24.83.002v.75a.75.75 0 0 0 .75-.75h-.75Zm-.75 0h1.5-1.5Zm0 0c0-.275.162-.427.197-.458.041-.035.058-.035.007-.013a3.385 3.385 0 0 1-.581.159c-.586.12-1.461.234-2.574.331-2.219.194-5.3.315-8.714.315v1.5c3.443 0 6.57-.122 8.844-.32 1.133-.1 2.076-.219 2.747-.357a4.71 4.71 0 0 0 .866-.249c.115-.048.257-.12.383-.228a.898.898 0 0 0 .325-.68h-1.5Zm-11.665.334c-3.414 0-6.495-.12-8.714-.314-1.113-.098-1.988-.212-2.574-.332a3.385 3.385 0 0 1-.581-.16c-.051-.021-.034-.021.007.014.035.03.197.183.197.458h-1.5c0 .35.205.576.325.68.126.108.268.18.383.228.234.1.536.18.866.249.671.138 1.614.258 2.747.357 2.274.198 5.401.32 8.844.32v-1.5Zm-11.665-.334v.016l-1.5-.036v.02h1.5Zm0-.002a7.379 7.379 0 0 1 7.379-7.377v-1.5a8.879 8.879 0 0 0-8.879 8.877h1.5Zm7.379-7.377h8.572v-1.5h-8.572v1.5Zm8.572 0a7.379 7.379 0 0 1 7.379 7.379h1.5a8.879 8.879 0 0 0-8.879-8.879v1.5Zm8.129 6.629v1.5-1.5Z"/><path fill="url(#d)" stroke="#EEE" stroke-linejoin="round" stroke-width="1.5" d="M126.718 72.86h178.589v95.673H126.718z"/><mask id="f" width="182" height="99" x="125" y="71" maskUnits="userSpaceOnUse" style="mask-type:alpha"><path fill="url(#e)" stroke="#202124" stroke-miterlimit="10" stroke-width="1.5" d="M126.718 72.151h178.589v96.381H126.718z"/></mask><g stroke="#EEE" stroke-miterlimit="10" stroke-width="1.5" mask="url(#f)"><path d="M216.309 216.459c35.056 0 63.474-18.974 63.474-42.38 0-23.405-28.418-42.379-63.474-42.379s-63.475 18.974-63.475 42.379c0 23.406 28.419 42.38 63.475 42.38Z"/><path d="M216.309 216.459c35.056 0 63.474-18.974 63.474-42.38 0-23.405-28.418-42.379-63.474-42.379s-63.475 18.974-63.475 42.379c0 23.406 28.419 42.38 63.475 42.38Z"/><path d="M216.305 202.332c23.371 0 42.317-12.649 42.317-28.253 0-15.603-18.946-28.252-42.317-28.252s-42.316 12.649-42.316 28.252c0 15.604 18.945 28.253 42.316 28.253Z"/><path d="M236.718 174.08c0 3.573-2.169 6.899-5.864 9.366-3.689 2.463-8.829 4.011-14.544 4.011s-10.855-1.548-14.545-4.011c-3.694-2.467-5.863-5.793-5.863-9.366 0-3.572 2.169-6.898 5.863-9.365 3.69-2.463 8.83-4.011 14.545-4.011s10.855 1.548 14.544 4.011c3.695 2.467 5.864 5.793 5.864 9.365ZM211.126 161.154l-11.24-28.009M221.496 161.154l11.241-28.009M230.489 164.617l30.709-20.504M277.622 163.112l-41.951 7.505M196.952 170.616l-41.951-7.505M202.131 164.617l-30.709-20.504"/></g><path fill="url(#g)" stroke="#EEE" stroke-linejoin="round" stroke-width="1.5" d="M126.743 202.468h178.624V366H126.743z"/><ellipse cx="166.826" cy="111.129" fill="#EEE" rx="9.049" ry="10.27"/><ellipse cx="266.135" cy="111.129" fill="#EEE" rx="9.049" ry="10.27"/><path stroke="#EEE" stroke-linejoin="round" stroke-width="1.5" d="M305.366 260.929h-38.557v-18.961H162.153v18.961h-35.41"/><path fill="#202124" fill-rule="evenodd" d="M228.061 168.533h-23.387v30.473c0 .783 5.236 1.418 11.694 1.418 6.458 0 11.693-.635 11.693-1.418v-30.473Z" clip-rule="evenodd"/><path fill="#EEE" d="M204.674 168.533v-.75a.75.75 0 0 0-.75.75h.75Zm23.387 0h.75a.75.75 0 0 0-.75-.75v.75Zm-23.387 30.47.75.015v-.015h-.75Zm23.387.003v-.75a.75.75 0 0 0-.75.75h.75Zm0 0v.75a.75.75 0 0 0 .75-.75h-.75Zm-23.387-29.723h23.387v-1.5h-23.387v1.5Zm.75 29.72v-30.47h-1.5v30.47h1.5Zm0 .003v.012l-1.5-.03v.018h1.5Zm10.944.668c-3.209 0-6.101-.158-8.179-.41-1.044-.127-1.854-.274-2.389-.427a2.428 2.428 0 0 1-.506-.19c-.132-.079.13.019.13.359h-1.5c0 .536.426.825.606.931a3.7 3.7 0 0 0 .857.342c.648.186 1.55.344 2.622.474 2.154.261 5.109.421 8.359.421v-1.5Zm10.943-.668c0-.34.263-.438.13-.359a2.346 2.346 0 0 1-.506.19c-.535.153-1.345.3-2.389.427-2.078.252-4.97.41-8.178.41v1.5c3.249 0 6.204-.16 8.358-.421 1.072-.13 1.974-.288 2.622-.474a3.7 3.7 0 0 0 .857-.342c.18-.106.606-.395.606-.931h-1.5Zm.75-.75v1.5-1.5Zm-.75-29.723v30.473h1.5v-30.473h-1.5Z"/><path fill="#202124" stroke="#EEE" stroke-miterlimit="10" stroke-width="1.5" d="M213.299 27.771h6.295v32.39h-6.295z"/><path fill="#EEE" fill-rule="evenodd" d="M219.594 29.35h-6.295v.843c2.436.321 4.634 2.126 6.295 4.895v-5.737Z" clip-rule="evenodd"/><path fill="#EEE" d="M213.299 29.35v-.75h-.75v.75h.75Zm6.295 0h.75v-.75h-.75v.75Zm-6.295.843h-.75v.657l.652.086.098-.743Zm6.295 4.895-.643.386 1.393 2.323v-2.709h-.75Zm-6.295-4.987h6.295v-1.5h-6.295v1.5Zm.75.092v-.842h-1.5v.842h1.5Zm-.848.743c2.122.28 4.152 1.875 5.75 4.538l1.286-.772c-1.724-2.875-4.09-4.89-6.84-5.253l-.196 1.487Zm5.643-1.585v5.737h1.5v-5.737h-1.5Z"/><ellipse cx="216.365" cy="23.961" fill="#202124" stroke="#EEE" stroke-miterlimit="10" stroke-width="1.5" rx="6.353" ry="4.961"/></g><rect width="430.5" height="240.5" x=".75" y=".75" stroke="#EEE" stroke-width="1.5" rx="39.25"/><defs><linearGradient id="b" x1="126.442" x2="305.031" y1="200.069" y2="200.069" gradientUnits="userSpaceOnUse"><stop stop-color="#5382EB"/><stop offset=".25" stop-color="#5382EB"/><stop offset=".52" stop-color="#9F6CD4"/><stop offset=".82" stop-color="#EA4335"/><stop offset="1" stop-color="#EA4335"/></linearGradient><linearGradient id="c" x1="305.225" x2="126.636" y1="73.214" y2="73.214" gradientUnits="userSpaceOnUse"><stop stop-color="#4285F4"/><stop offset=".27" stop-color="#4285F4"/><stop offset=".75" stop-color="#34A853"/><stop offset="1" stop-color="#34A853"/></linearGradient><linearGradient id="d" x1="139.474" x2="288.652" y1="84.553" y2="330.467" gradientUnits="userSpaceOnUse"><stop stop-color="#34A853"/><stop offset=".093" stop-color="#34A853"/><stop offset=".289" stop-color="#4285F4"/><stop offset=".369" stop-color="#4285F4"/><stop offset=".515" stop-color="#9F6CD4"/><stop offset=".647" stop-color="#EA4335"/><stop offset=".722" stop-color="#EA4335"/><stop offset=".82" stop-color="#F46831"/><stop offset=".905" stop-color="#FFCB32"/><stop offset="1" stop-color="#FFCB32"/></linearGradient><linearGradient id="e" x1="230.289" x2="221.696" y1="96.463" y2="164.832" gradientUnits="userSpaceOnUse"><stop stop-color="#FFC700"/><stop offset=".24" stop-color="#FFC700"/><stop offset=".76" stop-color="#00AA47"/><stop offset="1" stop-color="#00AA47"/></linearGradient><linearGradient id="g" x1="158.254" x2="223.453" y1="99.081" y2="322.672" gradientUnits="userSpaceOnUse"><stop stop-color="#34A853"/><stop offset=".093" stop-color="#34A853"/><stop offset=".289" stop-color="#4285F4"/><stop offset=".369" stop-color="#4285F4"/><stop offset=".515" stop-color="#9F6CD4"/><stop offset=".647" stop-color="#EA4335"/><stop offset=".722" stop-color="#EA4335"/><stop offset=".82" stop-color="#F46831"/><stop offset=".905" stop-color="#FFCB32"/><stop offset="1" stop-color="#FFCB32"/></linearGradient><clipPath id="a"><rect width="432" height="242" fill="#fff" rx="40"/></clipPath></defs></svg>