<svg xmlns="http://www.w3.org/2000/svg" width="432" height="242" fill="none"><g clip-path="url(#a)"><rect width="436" height="242" fill="#202124" rx="40"/><mask id="b" width="433" height="287" x="-1" y="-21" maskUnits="userSpaceOnUse" style="mask-type:luminance"><path fill="#fff" d="M431.226-20.602H-1V266h432.226V-20.602Z"/></mask><g mask="url(#b)"><path fill="#202124" d="M431.094-20.877H-1V266h432.094V-20.877Z"/><path fill="url(#c)" stroke="#EEE" stroke-miterlimit="10" stroke-width="1.5" d="M-1 154.555h263.187l15.516-33.011-15.516-33.007H-1v66.018Z"/><path fill="#202124" stroke="#EEE" stroke-linejoin="round" stroke-miterlimit="10" stroke-width="1.5" d="m333.953 121.544-71.766-33.007 5.907 25.994h-39.825v14.03h39.825l-5.907 25.994 71.766-33.011Z"/><mask id="d" width="173" height="67" x="-2" y="22" maskUnits="userSpaceOnUse" style="mask-type:luminance"><path fill="#fff" stroke="#fff" stroke-width="1.5" d="m169.637 55.37-15.31 32.566H-.328V22.805h154.655l15.31 32.565Z"/></mask><g stroke="#EEE" stroke-miterlimit="10" stroke-width="1.5" mask="url(#d)"><path d="M-2.529 174.144V7.124l191.178-.347v167.367H-2.529ZM11.229 6.526V174.21M195.286 62.545H-2.431M191.076 76.524H-2.431M197.049 34.502H-2.431M188.65 48.524H-2.431M25.127 6.526V174.21M38.77 6.526V174.21M52.42 6.526V174.21M79.714 6.526V174.21M65 6.526V174.21M93.36 6.526V174.21M107.007 6.526V174.21M120.653 6.526V174.21M134.302 6.526V174.21M147.949 6.526V174.21M161.598 6.526V174.21"/></g><path fill="#EEE" stroke="#EEE" stroke-linejoin="round" stroke-miterlimit="10" stroke-width="1.5" d="m226.564 55.525-71.77-33.01 5.906 25.993h-39.825v14.034H160.7l-5.906 25.995 71.77-33.012Z"/><path stroke="#EEE" stroke-miterlimit="10" stroke-width="1.5" d="M154.683 22.206H-.867M154.683 88.545H-.867"/><mask id="e" width="328" height="68" x="18" y="154" maskUnits="userSpaceOnUse" style="mask-type:luminance"><path fill="#fff" stroke="#fff" stroke-width="1.5" d="m344.592 187.702-15.314 32.566H19.123v-65.131h310.155l15.314 32.565Z"/></mask><g stroke="#EEE" stroke-miterlimit="10" stroke-width="1.5" mask="url(#e)"><path d="M-9.247 306.482V139.457l372.85-.347v167.372H-9.247ZM186.183 138.86v167.684M370.235 194.878H23.658M366.025 208.858H108.276M372.002 166.836H152.934M363.604 180.857H60.68M200.078 138.86v167.684M213.724 138.86v167.684M227.373 138.86v167.684M241.022 138.86v167.684M254.669 138.86v167.684M268.312 138.86v167.684M281.961 138.86v167.684M295.607 138.86v167.684M309.254 138.86v167.684M322.903 138.86v167.684M336.546 138.86v167.684"/></g><path stroke="#EEE" stroke-miterlimit="10" stroke-width="1.5" d="M329.638 154.538H-1.092M329.639 220.882H-.794"/><path fill="#EEE" stroke="#EEE" stroke-linejoin="round" stroke-miterlimit="10" stroke-width="1.5" d="m401.551 187.566-71.77-33.011 5.906 25.994h-39.825v14.034h39.825l-5.906 25.995 71.77-33.012Z"/><path stroke="#EEE" stroke-miterlimit="10" stroke-width="1.5" d="M172.304 180.857v39.72M158.374 180.857v28.197M144.949 180.857v14.022M119.458 166.87h-17.996M228.269 114.531H-1.091M228.269 128.539H-1.091"/><path fill="url(#f)" stroke="#EEE" stroke-miterlimit="10" stroke-width="1.5" d="M313.353 22.514h119.525v66.023H313.353c-18.293 0-33.147-14.794-33.147-33.012s14.854-33.01 33.147-33.01Z"/><path stroke="#EEE" stroke-miterlimit="10" stroke-width="1.5" d="M380.949 88.537h74.355v66.022h-74.355c-18.293 0-33.147-14.793-33.147-33.011 0-18.218 14.854-33.01 33.147-33.01Z"/><path fill="url(#g)" stroke="#EEE" stroke-miterlimit="10" stroke-width="1.5" d="M434.699 154.555h74.354v66.023h-74.354c-18.294 0-33.148-14.794-33.148-33.012s14.854-33.011 33.148-33.011Z"/><path fill="#EEE" d="M267.352 128.539H-1.092v3.274h268.444v-3.274Z"/></g></g><rect width="434.5" height="240.5" x=".75" y=".75" stroke="#EEE" stroke-width="1.5" rx="39.25"/><defs><linearGradient id="c" x1="21.851" x2="263.866" y1="121.544" y2="121.544" gradientUnits="userSpaceOnUse"><stop stop-color="#A769D9"/><stop offset=".18" stop-color="#FD2B25"/><stop offset=".24" stop-color="#FD391E"/><stop offset=".34" stop-color="#FF5C10"/><stop offset=".51" stop-color="#FFC800"/><stop offset=".54" stop-color="#FAC701"/><stop offset=".57" stop-color="#ECC505"/><stop offset=".61" stop-color="#D6C30B"/><stop offset=".64" stop-color="#B6BF14"/><stop offset=".68" stop-color="#8EBA1F"/><stop offset=".72" stop-color="#5CB42D"/><stop offset=".76" stop-color="#23AE3D"/><stop offset=".78" stop-color="#00AA47"/><stop offset="1" stop-color="#1F87FC"/></linearGradient><linearGradient id="f" x1="280.206" x2="432.874" y1="55.525" y2="55.525" gradientUnits="userSpaceOnUse"><stop stop-color="#00AA47"/><stop offset=".25" stop-color="#00AA47"/><stop offset=".73" stop-color="#1F86FB"/><stop offset="1" stop-color="#1F86FB"/></linearGradient><linearGradient id="g" x1="401.551" x2="509.049" y1="187.566" y2="187.566" gradientUnits="userSpaceOnUse"><stop stop-color="#FFC700"/><stop offset=".18" stop-color="#FFC700"/><stop offset=".53" stop-color="#FF5C10"/><stop offset=".79" stop-color="#FD2B25"/><stop offset="1" stop-color="#FD2B25"/></linearGradient><clipPath id="a"><rect width="436" height="242" fill="#fff" rx="40"/></clipPath></defs></svg>