<svg xmlns="http://www.w3.org/2000/svg" width="431" height="242" fill="none"><g clip-path="url(#a)"><rect width="431" height="242" fill="#202124" rx="40"/><path fill="url(#b)" stroke="#EEE" stroke-miterlimit="10" stroke-width="1.5" d="m134.61-53.958 20.421-20.547s2.069-2.44 6.96-2.44h344.557c6.282 0 11.378 5.156 11.378 11.511v161s0 4.65-3.014 7.754l-20.53 20.672L134.61-53.958Z"/><path fill="#202124" stroke="#EEE" stroke-miterlimit="10" stroke-width="1.5" d="m116.401-35.539 20.42-20.547s2.069-2.439 6.96-2.439h344.557c6.282 0 11.379 5.156 11.379 11.51v161s0 4.65-3.014 7.755l-20.531 20.671-359.771-177.95Z"/><path fill="#202124" stroke="#EEE" stroke-miterlimit="10" stroke-width="1.5" d="m98.713-17.653 20.42-20.547s2.069-2.44 6.96-2.44H470.65c6.282 0 11.379 5.157 11.379 11.511v161s0 4.65-3.014 7.754l-20.531 20.672L98.713-17.653Z"/><path fill="#202124" stroke="#EEE" stroke-miterlimit="10" stroke-width="1.5" d="m81.17.1 20.42-20.546s2.069-2.44 6.96-2.44h344.557c6.282 0 11.379 5.156 11.379 11.511v161s0 4.65-3.014 7.754l-20.531 20.672L81.17.101Z"/><path fill="#202124" stroke="#EEE" stroke-linejoin="round" stroke-width="1.5" d="M433.529-2.851H88.766c-6.218 0-11.258 5.302-11.258 11.842v167.578c0 6.54 5.04 11.842 11.258 11.842h344.763c6.217 0 11.257-5.302 11.257-11.842V8.991c0-6.54-5.04-11.842-11.257-11.842Z"/><path stroke="#EEE" stroke-linejoin="round" stroke-width="1.5" d="M78.258 23.946h371.45"/><rect width="239" height="17" x="169" y="48" fill="url(#c)" stroke="#EEE" stroke-width="1.5" rx="8.5"/><rect width="239" height="17" x="169" y="82" fill="url(#d)" stroke="#EEE" stroke-width="1.5" rx="8.5"/><rect width="309" height="17" x="99" y="116" fill="url(#e)" stroke="#EEE" stroke-width="1.5" rx="8.5"/><rect width="142.754" height="17.325" x="98.99" y="149.604" fill="url(#f)" stroke="#EEE" stroke-width="1.5" rx="8.662"/><path fill="#EEE" fill-rule="evenodd" d="M100.728 51.927a8.31 8.31 0 0 1 7.214-4.19 8.24 8.24 0 0 1 4.156 1.125l29.23 16.981c2.755 1.6 4.256 4.542 4.16 7.53.099 2.991-1.403 5.936-4.16 7.537l-29.23 16.981a8.239 8.239 0 0 1-4.156 1.126 8.31 8.31 0 0 1-7.214-4.191c-2.3-4.007-.937-9.129 3.047-11.442l17.227-10.007-17.227-10.008c-3.984-2.313-5.347-7.435-3.047-11.442Z" clip-rule="evenodd"/><path fill="#EEE" d="m100.728 51.927.65.373-.65-.373Zm11.37-3.065-.377.648.377-.648Zm29.23 16.981-.377.649.377-.649Zm4.16 7.53-.749-.023-.001.024.001.024.749-.024Zm-4.16 7.537-.377-.649.377.649Zm-29.23 16.981-.377-.648.377.648Zm-11.37-3.065.65-.373-.65.373Zm3.047-11.442.377.65v-.001l-.377-.649Zm17.227-10.007.377.648 1.116-.648-1.116-.649-.377.649Zm-17.227-10.008.377-.649-.377.649Zm4.167-16.383a9.062 9.062 0 0 0-7.865 4.568l1.301.746a7.561 7.561 0 0 1 6.564-3.814v-1.5Zm4.533 1.228a8.99 8.99 0 0 0-4.533-1.228v1.5c1.284 0 2.583.329 3.779 1.025l.754-1.297Zm29.229 16.98-29.229-16.98-.754 1.297 29.23 16.98.753-1.296Zm4.534 8.204c.105-3.252-1.529-6.46-4.534-8.204l-.753 1.298c2.506 1.454 3.875 4.132 3.788 6.858l1.499.048Zm-1.499 0c.089 2.727-1.28 5.408-3.788 6.863l.753 1.298c3.007-1.746 4.641-4.956 4.534-8.21l-1.499.05Zm-3.788 6.864-29.23 16.98.754 1.297 29.229-16.98-.753-1.297Zm-29.23 16.98a7.488 7.488 0 0 1-3.779 1.025v1.5a8.987 8.987 0 0 0 4.533-1.228l-.754-1.296Zm-3.779 1.025a7.562 7.562 0 0 1-6.564-3.814l-1.301.746a9.061 9.061 0 0 0 7.865 4.568v-1.5Zm-6.564-3.814c-2.095-3.651-.851-8.316 2.774-10.42l-.753-1.297c-4.343 2.521-5.826 8.1-3.322 12.463l1.301-.746Zm2.774-10.42 17.227-10.008-.754-1.297-17.226 10.008.753 1.297Zm-.754-20.016 17.227 10.008.754-1.297-17.227-10.008-.754 1.297Zm-3.321-12.463c-2.504 4.363-1.022 9.942 3.322 12.463l.753-1.297c-3.625-2.104-4.87-6.768-2.774-10.42l-1.301-.746Z"/><path stroke="#EEE" stroke-linejoin="round" stroke-width="1.5" d="M398.272 15.99c2.856 0 5.172-2.342 5.172-5.231 0-2.89-2.316-5.232-5.172-5.232-2.857 0-5.172 2.342-5.172 5.232s2.315 5.232 5.172 5.232ZM413.786 15.99c2.857 0 5.172-2.342 5.172-5.231 0-2.89-2.315-5.232-5.172-5.232-2.856 0-5.172 2.342-5.172 5.232s2.316 5.232 5.172 5.232ZM429.301 15.99c2.857 0 5.172-2.342 5.172-5.231 0-2.89-2.315-5.232-5.172-5.232-2.856 0-5.172 2.342-5.172 5.232s2.316 5.232 5.172 5.232Z"/><path fill="#202124" d="m135.965 123.964-16.532 63.754h-18.017l34.549-63.754Z"/><path fill="#202124" stroke="#EEE" stroke-miterlimit="10" stroke-width="1.5" d="m135.965 123.964-94.727 19.577 24.737 21.683-39.239 29.195 10.214 14.04 39.232-29.189 13.098 30.339 46.685-85.645Z"/></g><rect width="429.5" height="240.5" x=".75" y=".75" stroke="#EEE" stroke-width="1.5" rx="39.25"/><defs><linearGradient id="b" x1="134.61" x2="517.926" y1="23.772" y2="23.772" gradientUnits="userSpaceOnUse"><stop stop-color="#34A853"/><stop offset=".093" stop-color="#34A853"/><stop offset=".289" stop-color="#4285F4"/><stop offset=".369" stop-color="#4285F4"/><stop offset=".515" stop-color="#9F6CD4"/><stop offset=".647" stop-color="#EA4335"/><stop offset=".722" stop-color="#EA4335"/><stop offset=".82" stop-color="#F46831"/><stop offset=".905" stop-color="#FFCB32"/><stop offset="1" stop-color="#FFCB32"/></linearGradient><linearGradient id="c" x1="169" x2="399.774" y1="56.16" y2="56.16" gradientUnits="userSpaceOnUse"><stop stop-color="#4285F4"/><stop offset=".101" stop-color="#4285F4"/><stop offset=".238" stop-color="#9F6CD4"/><stop offset=".378" stop-color="#EA4335"/><stop offset=".441" stop-color="#EA4335"/><stop offset=".571" stop-color="#F46831"/><stop offset=".683" stop-color="#FFCB32"/><stop offset=".763" stop-color="#FFCB32"/><stop offset=".912" stop-color="#34A853"/><stop offset="1" stop-color="#34A853"/></linearGradient><linearGradient id="d" x1="169" x2="378.991" y1="90.16" y2="90.16" gradientUnits="userSpaceOnUse"><stop stop-color="#4285F4"/><stop offset=".101" stop-color="#4285F4"/><stop offset=".238" stop-color="#9F6CD4"/><stop offset=".378" stop-color="#EA4335"/><stop offset=".441" stop-color="#EA4335"/><stop offset=".571" stop-color="#F46831"/><stop offset=".683" stop-color="#FFCB32"/><stop offset=".763" stop-color="#FFCB32"/><stop offset=".912" stop-color="#34A853"/><stop offset="1" stop-color="#34A853"/></linearGradient><linearGradient id="e" x1="109.819" x2="378.139" y1="124.16" y2="124.16" gradientUnits="userSpaceOnUse"><stop stop-color="#4285F4"/><stop offset=".101" stop-color="#4285F4"/><stop offset=".238" stop-color="#9F6CD4"/><stop offset=".378" stop-color="#EA4335"/><stop offset=".441" stop-color="#EA4335"/><stop offset=".571" stop-color="#F46831"/><stop offset=".683" stop-color="#FFCB32"/><stop offset=".763" stop-color="#FFCB32"/><stop offset=".912" stop-color="#34A853"/><stop offset="1" stop-color="#34A853"/></linearGradient><linearGradient id="f" x1="117.184" x2="308.616" y1="158.266" y2="158.266" gradientUnits="userSpaceOnUse"><stop stop-color="#4285F4"/><stop offset=".101" stop-color="#4285F4"/><stop offset=".238" stop-color="#9F6CD4"/><stop offset=".378" stop-color="#EA4335"/><stop offset=".441" stop-color="#EA4335"/><stop offset=".571" stop-color="#F46831"/><stop offset=".683" stop-color="#FFCB32"/><stop offset=".763" stop-color="#FFCB32"/><stop offset=".912" stop-color="#34A853"/><stop offset="1" stop-color="#34A853"/></linearGradient><clipPath id="a"><rect width="431" height="242" fill="#fff" rx="40"/></clipPath></defs></svg>