<svg xmlns="http://www.w3.org/2000/svg" width="432" height="242" fill="none"><g clip-path="url(#a)"><rect width="432" height="242" fill="#202124" rx="40"/><path stroke="#EEE" stroke-linecap="round" stroke-linejoin="round" stroke-width="1.5" d="M-295.398 31.686H726.655M-324.035 83.484H755.813M-355.82 140.982H788.311M-390.934 206.975H824.798M218.219 465.726V-56.646M282.871-56.95l40.223 522.678M349.047-56.95l81.752 522.678M415.223-56.95l123.273 522.678M149.621-56.95l-40.223 522.678M83.448-56.95 1.703 465.728M17.27-56.95l-123.266 522.678M968 466 678.867-57h-925.233L-535.5 466H968Z"/><path fill="#202124" d="M351.609 162.921H123.863c-9.07 0-16.686 6.134-18.984 14.463a5.49 5.49 0 0 0-.732 2.743v14.157c0 10.886 8.83 19.716 19.716 19.716h227.746c10.886 0 19.716-8.83 19.716-19.716v-14.157a5.49 5.49 0 0 0-.732-2.743c-2.298-8.338-9.914-14.463-18.984-14.463ZM67.634 87.095h24.904c10.887 0 19.716-8.83 19.716-19.716V55.723c0-10.886-8.829-19.716-19.716-19.716H67.634c-10.887 0-19.717 8.83-19.717 19.717v11.655c0 10.886 8.83 19.716 19.717 19.716ZM138.653 67.379c0 10.886 8.83 19.716 19.716 19.716h214.219c10.887 0 19.716-8.83 19.716-19.716V55.723c0-10.886-8.829-19.716-19.716-19.716H158.369c-10.886 0-19.716 8.83-19.716 19.717v11.655ZM153.957 130.836v-8.774c0-.435-.027-.862-.083-1.279.046-.528.083-1.065.083-1.602 0-10.887-8.829-19.717-19.716-19.717H40.08c-10.887 0-19.716 8.83-19.716 19.717 0 .537.037 1.074.083 1.602-.046.417-.083.844-.083 1.279v8.774c0 10.887 8.83 19.716 19.716 19.716h94.161c10.887 0 19.716-8.829 19.716-19.716ZM320.368 119.18c0-.278-.018-.556-.046-.825-.436-10.497-9.061-18.882-19.67-18.882H200.07c-10.609 0-19.234 8.385-19.67 18.882a8.002 8.002 0 0 0-.046.825v11.655c0 10.887 8.829 19.716 19.716 19.716h100.582c10.887 0 19.716-8.829 19.716-19.716V119.18ZM417.385 118.143c-.537-10.405-9.126-18.679-19.661-18.679H367.15c-10.535 0-19.124 8.274-19.661 18.679a9.094 9.094 0 0 0-.056.88v11.804c0 10.886 8.83 19.716 19.717 19.716h30.574c10.887 0 19.717-8.83 19.717-19.716v-11.804c0-.296-.019-.593-.056-.88Z"/><path fill="#202124" stroke="#EEE" stroke-linejoin="round" stroke-width="1.5" d="M103.391 165.55h256.051a5.563 5.563 0 0 1 5.559 5.559v14.157c0 10.877-8.829 19.716-19.716 19.716H117.539c-10.877 0-19.716-8.83-19.716-19.716v-14.157a5.563 5.563 0 0 1 5.559-5.559h.009Z"/><path fill="#202124" stroke="#EEE" stroke-linejoin="round" stroke-width="1.5" d="M345.294 153.903H117.557c-10.888 0-19.716 8.825-19.716 19.712 0 10.886 8.828 19.711 19.716 19.711h227.737c10.889 0 19.716-8.825 19.716-19.711 0-10.887-8.827-19.712-19.716-19.712Z"/><path fill="#202124" stroke="#EEE" stroke-miterlimit="10" stroke-width="1.5" d="M41.602 46.715v11.656c0 10.886 8.83 19.716 19.717 19.716h24.904c10.887 0 19.716-8.83 19.716-19.716V46.715H41.602Z"/><path fill="#202124" stroke="#EEE" stroke-miterlimit="10" stroke-width="1.5" d="M86.214 27H61.32c-10.89 0-19.717 8.825-19.717 19.712 0 10.886 8.828 19.711 19.717 19.711h24.895c10.889 0 19.716-8.825 19.716-19.712C105.93 35.826 97.103 27 86.214 27ZM132.325 46.715v11.656c0 10.886 8.829 19.716 19.716 19.716H366.26c10.886 0 19.716-8.83 19.716-19.716V46.715H132.325Z"/><path fill="#202124" stroke="#EEE" stroke-miterlimit="10" stroke-width="1.5" d="M366.25 27H152.041c-10.889 0-19.716 8.825-19.716 19.712 0 10.886 8.827 19.711 19.716 19.711H366.25c10.889 0 19.717-8.825 19.717-19.712 0-10.886-8.828-19.711-19.717-19.711Z"/><path stroke="#EEE" stroke-miterlimit="10" stroke-width="1.5" d="M94.829 64.477V76.15M101.528 58.713v11.6M82.636 67.079v10.636M375.128 64.477V76.15M381.834 58.713v11.6M362.935 67.079v10.636"/><path fill="url(#b)" stroke="#EEE" stroke-miterlimit="10" stroke-width="1.5" d="M25 102.102h111.699c6.041 0 10.943 4.901 10.943 10.942v8.774c0 10.877-8.83 19.716-19.717 19.716H33.773c-10.877 0-19.716-8.83-19.716-19.716v-8.774c0-6.041 4.901-10.942 10.942-10.942Z"/><path fill="url(#c)" stroke="#EEE" stroke-miterlimit="10" stroke-width="1.5" d="M182.099 102.102h123.893c4.447 0 8.051 3.613 8.051 8.051v11.655c0 10.878-8.829 19.717-19.716 19.717H193.745c-10.877 0-19.716-8.83-19.716-19.717v-11.655c0-4.447 3.613-8.051 8.051-8.051h.019Z"/><path fill="url(#d)" stroke="#EEE" stroke-miterlimit="10" stroke-width="1.5" d="M349.028 102.102h54.183a7.914 7.914 0 0 1 7.912 7.912v11.804c0 10.877-8.83 19.716-19.716 19.716h-30.575c-10.877 0-19.716-8.83-19.716-19.716v-11.804a7.914 7.914 0 0 1 7.912-7.912Z"/><path fill="url(#e)" stroke="#EEE" stroke-miterlimit="10" stroke-width="1.5" d="M127.925 90.446H33.773c-10.889 0-19.716 8.825-19.716 19.712 0 10.886 8.827 19.711 19.716 19.711h94.152c10.889 0 19.717-8.825 19.717-19.711 0-10.887-8.828-19.712-19.717-19.712Z"/><path fill="url(#f)" stroke="#EEE" stroke-miterlimit="10" stroke-width="1.5" d="M294.335 90.446H193.763c-10.889 0-19.717 8.825-19.717 19.712 0 10.886 8.828 19.711 19.717 19.711h100.572c10.889 0 19.717-8.825 19.717-19.711 0-10.887-8.828-19.712-19.717-19.712Z"/><path fill="url(#g)" stroke="#EEE" stroke-miterlimit="10" stroke-width="1.5" d="M391.407 90.446h-30.575c-10.889 0-19.716 8.825-19.716 19.712 0 10.886 8.827 19.711 19.716 19.711h30.575c10.889 0 19.716-8.825 19.716-19.711 0-10.887-8.827-19.712-19.716-19.712Z"/><path stroke="#EEE" stroke-miterlimit="10" stroke-width="1.5" d="M136.691 128.072v11.674M143.39 122.3v11.609M124.498 130.675v10.636M303.314 128.072v11.674M310.013 122.3v11.609M291.121 130.675v10.636M354.142 191.01v11.674M360.848 185.237v11.609M341.949 193.612v10.637M399.737 128.072v11.674M406.443 122.3v11.609M387.544 130.675v10.636"/></g><rect width="430.5" height="240.5" x=".75" y=".75" stroke="#EEE" stroke-width="1.5" rx="39.25"/><defs><linearGradient id="b" x1="37.218" x2="405.642" y1="121.866" y2="121.866" gradientUnits="userSpaceOnUse"><stop stop-color="#34A853"/><stop offset=".093" stop-color="#34A853"/><stop offset=".289" stop-color="#4285F4"/><stop offset=".369" stop-color="#4285F4"/><stop offset=".515" stop-color="#9F6CD4"/><stop offset=".647" stop-color="#EA4335"/><stop offset=".722" stop-color="#EA4335"/><stop offset=".82" stop-color="#F46831"/><stop offset=".905" stop-color="#FFCB32"/><stop offset="1" stop-color="#FFCB32"/></linearGradient><linearGradient id="c" x1="36.762" x2="406.498" y1="121.862" y2="121.862" gradientUnits="userSpaceOnUse"><stop stop-color="#34A853"/><stop offset=".093" stop-color="#34A853"/><stop offset=".289" stop-color="#4285F4"/><stop offset=".369" stop-color="#4285F4"/><stop offset=".515" stop-color="#9F6CD4"/><stop offset=".647" stop-color="#EA4335"/><stop offset=".722" stop-color="#EA4335"/><stop offset=".82" stop-color="#F46831"/><stop offset=".905" stop-color="#FFCB32"/><stop offset="1" stop-color="#FFCB32"/></linearGradient><linearGradient id="d" x1="38.504" x2="405.642" y1="121.866" y2="121.866" gradientUnits="userSpaceOnUse"><stop stop-color="#34A853"/><stop offset=".093" stop-color="#34A853"/><stop offset=".289" stop-color="#4285F4"/><stop offset=".369" stop-color="#4285F4"/><stop offset=".515" stop-color="#9F6CD4"/><stop offset=".647" stop-color="#EA4335"/><stop offset=".722" stop-color="#EA4335"/><stop offset=".82" stop-color="#F46831"/><stop offset=".905" stop-color="#FFCB32"/><stop offset="1" stop-color="#FFCB32"/></linearGradient><linearGradient id="e" x1="37.218" x2="405.642" y1="110.206" y2="110.206" gradientUnits="userSpaceOnUse"><stop stop-color="#34A853"/><stop offset=".093" stop-color="#34A853"/><stop offset=".289" stop-color="#4285F4"/><stop offset=".369" stop-color="#4285F4"/><stop offset=".515" stop-color="#9F6CD4"/><stop offset=".647" stop-color="#EA4335"/><stop offset=".722" stop-color="#EA4335"/><stop offset=".82" stop-color="#F46831"/><stop offset=".905" stop-color="#FFCB32"/><stop offset="1" stop-color="#FFCB32"/></linearGradient><linearGradient id="f" x1="36.788" x2="406.5" y1="110.206" y2="110.206" gradientUnits="userSpaceOnUse"><stop stop-color="#34A853"/><stop offset=".093" stop-color="#34A853"/><stop offset=".289" stop-color="#4285F4"/><stop offset=".369" stop-color="#4285F4"/><stop offset=".515" stop-color="#9F6CD4"/><stop offset=".647" stop-color="#EA4335"/><stop offset=".722" stop-color="#EA4335"/><stop offset=".82" stop-color="#F46831"/><stop offset=".905" stop-color="#FFCB32"/><stop offset="1" stop-color="#FFCB32"/></linearGradient><linearGradient id="g" x1="38.504" x2="405.642" y1="110.206" y2="110.206" gradientUnits="userSpaceOnUse"><stop stop-color="#34A853"/><stop offset=".093" stop-color="#34A853"/><stop offset=".289" stop-color="#4285F4"/><stop offset=".369" stop-color="#4285F4"/><stop offset=".515" stop-color="#9F6CD4"/><stop offset=".647" stop-color="#EA4335"/><stop offset=".722" stop-color="#EA4335"/><stop offset=".82" stop-color="#F46831"/><stop offset=".905" stop-color="#FFCB32"/><stop offset="1" stop-color="#FFCB32"/></linearGradient><clipPath id="a"><rect width="432" height="242" fill="#fff" rx="40"/></clipPath></defs></svg>