<svg xmlns="http://www.w3.org/2000/svg" width="431" height="242" fill="none"><rect width="429.5" height="240.5" x=".75" y=".75" fill="#202124" rx="39.25"/><rect width="429.5" height="240.5" x=".75" y=".75" stroke="#EEE" stroke-width="1.5" rx="39.25"/><path fill="#202124" stroke="#EEE" stroke-linejoin="round" stroke-width="1.5" d="M163.549 46.327H61.854c-3.203 0-5.8 2.586-5.8 5.777v81.719c0 3.19 2.597 5.777 5.8 5.777H163.55c3.204 0 5.8-2.587 5.8-5.777v-81.72c0-3.19-2.596-5.776-5.8-5.776ZM242.797 143.987h-81.781c-2.574 0-4.661 2.078-4.661 4.642v65.716c0 2.563 2.087 4.642 4.661 4.642h81.781c2.574 0 4.661-2.079 4.661-4.642v-65.716c0-2.564-2.087-4.642-4.661-4.642Z"/><path stroke="#EEE" stroke-linejoin="round" stroke-width="1.5" d="M168.526 219v-89.364M181.664 219v-89.364M194.8 219v-89.364M207.937 219v-89.364M221.073 219v-89.364M234.213 219v-89.364M247.1 199.26h-89.734M247.1 177.284h-89.734M247.1 155.308h-89.734M247.1 133.328h-89.734M247.1 111.351h-89.734M247.1 89.375h-89.734"/><path stroke="#EEE" stroke-miterlimit="10" stroke-width="1.5" d="M68.07 46.394v49.583M56.062 64.77h77.274M56.062 82.852h77.274M79.491 46.394v49.583M90.915 46.394v49.583M102.337 46.394v49.583M113.756 46.394v49.583M125.178 46.394v49.583"/><path fill="#202124" stroke="#EEE" stroke-miterlimit="10" stroke-width="1.5" d="M389.342 93.164h-78.099c-5.727 0-10.37 4.624-10.37 10.327v77.778c0 5.703 4.643 10.327 10.37 10.327h78.099c5.727 0 10.37-4.624 10.37-10.327v-77.778c0-5.703-4.643-10.327-10.37-10.327Z"/><path fill="#202124" d="M346.74 184.814c4.641 1.464 9.587-1.723 9.871-6.565.009-.15.013-.3.013-.451v-48.277c0-5.184-4.163-6.219-7.807-6.219h-8.325l-39.682 44.257v8.275l45.93 8.984v-.004Z"/><path fill="#202124" stroke="#EEE" stroke-miterlimit="10" stroke-width="1.5" d="M119.821 90.751H41.797c-5.722 0-10.361 4.62-10.361 10.319v77.703c0 5.699 4.639 10.318 10.36 10.318h78.025c5.722 0 10.361-4.619 10.361-10.318V101.07c0-5.699-4.639-10.319-10.361-10.319ZM319.134 36.91s7.903.8 12.15 1.15c4.246.35 8.137 4.934 8.493 11.278.352 6.344 1.06 96.672 1.06 104.305 0 7.632-.197 10.493-2.714 13.713-2.023 2.59-3.891 3.095-8.138 3.796-4.246.696-9.075.984-9.075.984l-1.776-135.227Z"/><path fill="url(#a)" stroke="#EEE" stroke-miterlimit="10" stroke-width="1.5" d="M251.43 83.284s.234 55.531.473 62.609c.239 7.073.473 14.681 8.728 16.208 8.255 1.526 35.854 6.227 46.588 8.104 10.734 1.881 21.586 7.048 21.586-12.922s-.708-91.62-1.06-101.134c-.352-9.514-.235-21.38-12.619-18.91-12.384 2.464-43.522 8.103-50.361 9.396-6.839 1.293-12.602 1.627-13.327 11.395-.418 5.639 0 25.254 0 25.254h-.008Z"/><path stroke="#EEE" stroke-miterlimit="10" stroke-width="1.5" d="M330.527 171.005c3.095-2.032 4.527-5.906 4.527-13.723 0-19.97-.708-91.62-1.059-101.134-.264-7.136-.264-15.595-5.474-18.335M327.758 54.701l12.087.192M328.146 73.144l11.894.192M328.343 93.215h11.894M328.343 111.692h11.894M328.343 130.256l12.191-.3M328.646 149.938l12.191-.296"/><path fill="#202124" stroke="#EEE" stroke-miterlimit="10" stroke-width="1.5" d="M270.886 205.635s12.908-1.117 15.366-1.497c2.458-.384 4.841-3.591 4.917-10.94.075-7.349-.767-99.09-1.077-106.44-.305-7.345-.536-14.96-6.684-15.382-6.148-.417-14.52-.763-14.52-.763l1.998 135.022Z"/><path fill="url(#b)" stroke="#EEE" stroke-miterlimit="10" stroke-width="1.5" d="M232.69 122.194V99.542c0-6.849.109-10.277 4.326-12.705 4.218-2.431 22.616-12.09 26.817-14.326 4.967-2.649 6.328-2.328 7.798-.255 1.034 1.456 2.55 4.421 2.55 21.547 0 17.125.997 91.149 1.11 99.328.109 8.175-1.11 14.694-6.99 11.82-5.88-2.873-30.288-15.027-30.288-15.027s-4.77 0-4.77-12.926c0-12.925-.553-54.8-.553-54.8v-.004Z"/><path stroke="#EEE" stroke-miterlimit="10" stroke-width="1.5" d="m274.465 127.858 16.082-.296M274.465 107.859h16.082M274.169 88.764h16.078M278.601 71.171c2.777 2.386 3.56 5.502 3.56 22.627 0 17.126.997 91.15 1.11 99.329.071 5.188-.26 9.847-2.99 11.586M275.215 184.297l16.04-.688M274.914 163.648l16.044-.688M274.914 145.609l16.044-.392"/><path fill="#202124" stroke="#EEE" stroke-miterlimit="10" stroke-width="1.5" d="M152.738 21.106s-6.24.746-10.424 2.014c-4.184 1.268-8.732 5.798-8.732 14.673 0 8.876-.545 91.121-.545 100.175 0 7.045.988 10.911 4.255 13.818 1.558 1.389 3.451 2.349 5.47 2.895 2.421.659 6.366 1.647 8.648 1.764 3.455.18 1.332-135.343 1.332-135.343l-.004.004Z"/><path fill="url(#c)" stroke="#EEE" stroke-miterlimit="10" stroke-width="1.5" d="M252.906 73.48v58.512c0 12.5-4.364 19.42-14.37 19.766-10.005.342-69.848 4.321-80.398 4.688-10.55.367-19.098.367-18.553-18.294.544-18.66.909-101.989.909-101.989s-2.367-16.55 16.186-15.07c18.554 1.481 65.121 4.564 76.764 5.469 11.643.905 19.646 2.536 19.646 16.666 0 14.131-.18 30.252-.18 30.252h-.004Z"/><path stroke="#EEE" stroke-miterlimit="10" stroke-width="1.5" d="M141.331 154.298c-3.271-2.331-5.194-6.994-4.926-16.149.545-18.661.909-101.99.909-101.99s-.875-10.16 6.366-13.426M140.371 39.158l-6.793.596M140.371 57.843l-6.793.3M139.486 134.06l-6.5-.596M139.784 113.606l-6.798-.296M140.077 78.297h-6.797M140.077 95.51h-6.797"/><path fill="#202124" stroke="#EEE" stroke-miterlimit="10" stroke-width="1.5" d="M119.728 69.04s-6.232.735-9.754 1.531c-3.522.797-9.922 3.05-10.4 11.97-.48 8.926-.64 85.39-.8 96.067-.167 11.149-1.168 18.619 7.728 22.302a7.113 7.113 0 0 0 1.604.45l9.825 1.631 1.797-133.95Z"/><path fill="url(#d)" stroke="#EEE" stroke-miterlimit="10" stroke-width="1.5" d="M208.225 110.248s-.8 61.829-.8 69.953c0 8.125-1.6 15.299-11.363 16.254-9.762.955-52.48 5.318-64.802 6.244-12.321.926-18.402 1.255-21.92-5.364-3.522-6.619-1.88-29.725-1.88-48.048 0-18.326.439-49.078.921-62.942.482-13.864 3.522-18.802 18.88-17.05 15.357 1.751 56.321 5.418 64.324 6.531 8 1.114 16.64 0 16.64 18.006v16.416Z"/><path stroke="#EEE" stroke-miterlimit="10" stroke-width="1.5" d="M110.74 201.798c-2.768-.86-4.51-2.549-5.93-5.222-3.476-6.536-1.265-29.355-1.265-47.452 0-18.097-.159-48.469.314-62.162.331-9.572 1.898-14.982 7.995-16.692a15.716 15.716 0 0 1 2.371-.459M108.539 86.249l-8.887.596M107.954 104.876l-8.59.301M107.476 124.158h-8.288M107.476 142.802h-8.288M107.185 160.753l-8.288-.601M106.839 181.127l-8.289-.596M108.773 86.347l99.45 6.819M140.374 39.157l112.718 6.448M274.168 88.766l-21.259 6.744M327.755 54.703l-74.761 9.61"/><path fill="#202124" d="m208.223 97.595 8.427 55.385-8.963.546.536-55.93ZM255.49 76.925v53.558c0 8.637 1.327 37.329-22.26 41.654l-.18-20.116s18.193 2.281 20.044-15.941V78.193l2.396-1.268ZM290.153 83.66h10.989s4.477.205 4.477 6.094c0 5.89 6.718 81.252 6.718 81.252l-21.317-3.599-.867-83.742v-.004Z"/><path stroke="#EEE" stroke-linejoin="round" stroke-width="1.5" d="M197.913 87.547a2.954 2.954 0 0 0 2.961-2.949 2.954 2.954 0 0 0-2.961-2.949 2.955 2.955 0 0 0-2.961 2.95 2.955 2.955 0 0 0 2.961 2.948ZM189.728 86.746a2.955 2.955 0 0 0 2.961-2.95 2.955 2.955 0 0 0-2.961-2.948 2.955 2.955 0 0 0-2.961 2.949 2.954 2.954 0 0 0 2.961 2.949ZM181.432 85.95A2.955 2.955 0 0 0 184.393 83a2.955 2.955 0 0 0-2.961-2.949 2.955 2.955 0 0 0-2.961 2.949 2.955 2.955 0 0 0 2.961 2.949ZM241.756 39.93a2.955 2.955 0 0 0 2.961-2.95 2.955 2.955 0 0 0-2.961-2.948 2.955 2.955 0 0 0-2.961 2.949 2.955 2.955 0 0 0 2.961 2.948ZM389.546 103.672a2.954 2.954 0 0 0 2.961-2.949 2.954 2.954 0 0 0-2.961-2.949 2.955 2.955 0 0 0-2.961 2.949 2.955 2.955 0 0 0 2.961 2.949ZM380.955 103.672a2.955 2.955 0 0 0 2.961-2.949 2.955 2.955 0 0 0-2.961-2.949 2.955 2.955 0 0 0-2.961 2.949 2.955 2.955 0 0 0 2.961 2.949ZM372.372 103.672a2.955 2.955 0 0 0 2.961-2.949 2.955 2.955 0 0 0-2.961-2.949 2.954 2.954 0 0 0-2.961 2.949 2.954 2.954 0 0 0 2.961 2.949ZM233.552 39.37a2.955 2.955 0 0 0 2.961-2.948 2.955 2.955 0 0 0-2.961-2.949 2.955 2.955 0 0 0-2.961 2.949 2.955 2.955 0 0 0 2.961 2.949ZM225.239 38.816a2.954 2.954 0 0 0 2.961-2.95 2.954 2.954 0 0 0-2.961-2.948 2.955 2.955 0 0 0-2.961 2.949 2.955 2.955 0 0 0 2.961 2.949ZM317.26 49.86a2.954 2.954 0 0 0 2.961-2.948 2.954 2.954 0 0 0-2.961-2.95 2.955 2.955 0 0 0-2.961 2.95 2.955 2.955 0 0 0 2.961 2.948ZM265.58 85.778c1.373 0 2.487-1.707 2.487-3.812 0-2.105-1.114-3.812-2.487-3.812-1.374 0-2.488 1.707-2.488 3.812 0 2.105 1.114 3.812 2.488 3.812ZM258.877 87.853c1.066 0 1.93-1.54 1.93-3.437 0-1.898-.864-3.437-1.93-3.437-1.067 0-1.931 1.539-1.931 3.437s.864 3.437 1.931 3.437ZM309.29 50.873a2.787 2.787 0 0 0 2.793-2.782 2.787 2.787 0 0 0-2.793-2.782 2.788 2.788 0 0 0-2.794 2.782 2.788 2.788 0 0 0 2.794 2.782ZM301.94 51.875c1.316 0 2.383-1.161 2.383-2.594 0-1.433-1.067-2.594-2.383-2.594s-2.383 1.161-2.383 2.594c0 1.433 1.067 2.594 2.383 2.594ZM31.507 105.391h67.775"/><path stroke="#EEE" stroke-miterlimit="10" stroke-width="1.5" d="M399.815 109.176h-59.064"/><defs><linearGradient id="a" x1="108.483" x2="328.805" y1="104.731" y2="104.731" gradientUnits="userSpaceOnUse"><stop stop-color="#34A853"/><stop offset=".093" stop-color="#34A853"/><stop offset=".289" stop-color="#4285F4"/><stop offset=".369" stop-color="#4285F4"/><stop offset=".515" stop-color="#9F6CD4"/><stop offset=".647" stop-color="#EA4335"/><stop offset=".722" stop-color="#EA4335"/><stop offset=".82" stop-color="#F46831"/><stop offset=".905" stop-color="#FFCB32"/><stop offset="1" stop-color="#FFCB32"/></linearGradient><linearGradient id="b" x1="107.83" x2="328.806" y1="138.294" y2="138.294" gradientUnits="userSpaceOnUse"><stop stop-color="#34A853"/><stop offset=".093" stop-color="#34A853"/><stop offset=".289" stop-color="#4285F4"/><stop offset=".369" stop-color="#4285F4"/><stop offset=".515" stop-color="#9F6CD4"/><stop offset=".647" stop-color="#EA4335"/><stop offset=".722" stop-color="#EA4335"/><stop offset=".82" stop-color="#F46831"/><stop offset=".905" stop-color="#FFCB32"/><stop offset="1" stop-color="#FFCB32"/></linearGradient><linearGradient id="c" x1="107.83" x2="328.48" y1="88.933" y2="88.933" gradientUnits="userSpaceOnUse"><stop stop-color="#34A853"/><stop offset=".093" stop-color="#34A853"/><stop offset=".289" stop-color="#4285F4"/><stop offset=".369" stop-color="#4285F4"/><stop offset=".515" stop-color="#9F6CD4"/><stop offset=".647" stop-color="#EA4335"/><stop offset=".722" stop-color="#EA4335"/><stop offset=".82" stop-color="#F46831"/><stop offset=".905" stop-color="#FFCB32"/><stop offset="1" stop-color="#FFCB32"/></linearGradient><linearGradient id="d" x1="107.077" x2="328.48" y1="136.243" y2="136.243" gradientUnits="userSpaceOnUse"><stop stop-color="#34A853"/><stop offset=".093" stop-color="#34A853"/><stop offset=".289" stop-color="#4285F4"/><stop offset=".369" stop-color="#4285F4"/><stop offset=".515" stop-color="#9F6CD4"/><stop offset=".647" stop-color="#EA4335"/><stop offset=".722" stop-color="#EA4335"/><stop offset=".82" stop-color="#F46831"/><stop offset=".905" stop-color="#FFCB32"/><stop offset="1" stop-color="#FFCB32"/></linearGradient></defs></svg>